<svg width="64" height="64" viewBox="0 0 64 64" fill="none" xmlns="http://www.w3.org/2000/svg">
<path d="M39.433 13.75L59.3516 48.25C59.544 48.5833 59.3035 49 58.9186 49H19.0814C18.6965 49 18.456 48.5833 18.6484 48.25L38.567 13.75C38.7594 13.4167 39.2406 13.4167 39.433 13.75Z" stroke="#646464" stroke-width="5"/>
<path fill-rule="evenodd" clip-rule="evenodd" d="M8.20722 46.6305L21.696 24.9047L24.5647 29.5251L27.4005 24.6134L24.2448 19.5306C23.0713 17.6405 20.3208 17.6405 19.1473 19.5306L2.06265 47.0481C0.821882 49.0466 2.25907 51.6305 4.61137 51.6305H11.8021L14.6889 46.6305H8.20722Z" fill="#8A1717"/>
<path d="M39.0748 21L44 30L34 29.9107L39.0748 21Z" fill="#AAAAAA"/>
</svg>